# xmcd
#
# Track frame offsets:
#	300
#	14016
#	26127
#	36573
#	45525
#	60235
#	73386
#	84327
#	94074
#	105251
#	119628
#	130994
#	143186
#	152487
#	166474
#	176972
#	190182
#	201450
#	214822
#	226556
#	238730
#	249575
#	261411
#	272862
#
# Disc length: 3796 seconds
#
# Revision: 0
# Processed by: cddbd v1.5.2PL0 Copyright (c) Steve Scherf et al.
# Submitted via: audiograbber 1.83.01
#
DISCID=680ed018
DTITLE=Various Artist - First Generation Blue Grass
DYEAR=1900
DGENRE=Bluegrass
TTITLE0=Bill Monroe - Blue Moon Of Kentucky
TTITLE1=Flatt and Scruggs - Foggy Mountain Breakdown
TTITLE2=The Stanley Brothers - Little Maggie
TTITLE3=Brown's Ferry Four - Over In Glory Land
TTITLE4=Jimmy Martin and The Osborne Brothers - Across The Sea Blues
TTITLE5=Mac Wiseman - Dreaming Of A Little Cabin
TTITLE6=Jim and Jesse - I'll Wash Your Love From My Heart
TTITLE7=The Lonesome Pine Fiddlers - You Broke Your Promise
TTITLE8=Reno and Smiley - There's Another Baby Waiting For Me Down The Line
TTITLE9=The Lilly Brothers - They Sleep Together Now At Rest
TTITLE10=Wilma Lee and Stoney Cooper - Wicked Path Of Sin
TTITLE11=Sonny Osborne - Get In Line Brother
TTITLE12=The Bailey Brothers - Rattlesnake Daddy
TTITLE13=Jim Eanes - I Cried Again
TTITLE14=Bill Monroe - Bluegrass Breakdown
TTITLE15=The Stanley Brothers - Little Glass Of Wine
TTITLE16=Flatt and Scruggs - Old Salty Dog Blues
TTITLE17=Brown's Ferry Four - Will The Circle Be Unbroken
TTITLE18=The Lilly Brothers - What Are They Doing In Heaven Today
TTITLE19=Sonny Osborne - The Old Cross Road
TTITLE20=Jim and Jesse - Are You Missing Me
TTITLE21=Mac Wiseman - Little White Church
TTITLE22=Reno and Smiley - I'm Using My Bible For A Roadmap
TTITLE23=The Lonesome Pine Fiddlers - Pain In My Heart
EXTD=CD 2 der Compilation "Bluegrass from Roots to Branches"
EXTT0=
EXTT1=
EXTT2=
EXTT3=
EXTT4=
EXTT5=
EXTT6=
EXTT7=
EXTT8=
EXTT9=
EXTT10=
EXTT11=
EXTT12=
EXTT13=
EXTT14=
EXTT15=
EXTT16=
EXTT17=
EXTT18=
EXTT19=
EXTT20=
EXTT21=
EXTT22=
EXTT23=
PLAYORDER=
